<svg width="66" height="66" viewBox="0 0 66 66" fill="none" xmlns="http://www.w3.org/2000/svg">
<g filter="url(#filter0_d_311_75)">
<ellipse cx="33.5" cy="30" rx="18.5" ry="18" fill="#FDC4C0"/>
<path d="M44.4473 17.761C44.4584 17.761 44.4733 17.761 44.4882 17.761C44.8768 17.761 45.2375 17.8818 45.5331 18.09L45.5275 18.0863C45.7432 18.2741 45.8882 18.5381 45.9235 18.8356V18.8412C45.9607 19.068 45.9811 19.3283 45.9811 19.5942C45.9811 19.715 45.9774 19.834 45.9681 19.953V19.9363C45.5498 24.3408 43.7352 35.022 42.813 39.9527C42.4226 42.0406 41.6547 42.7397 40.911 42.8066C39.2954 42.9572 38.0683 41.7394 36.5028 40.7131C34.0523 39.1049 32.6672 38.1046 30.2892 36.5373C27.5394 34.7283 29.3224 33.7299 30.8879 32.1049C31.2988 31.6773 38.4215 25.1979 38.561 24.6104C38.5684 24.575 38.5721 24.536 38.5721 24.4951C38.5721 24.3501 38.5182 24.2181 38.4308 24.1177C38.3341 24.0545 38.2133 24.0191 38.0869 24.0191C38.0032 24.0191 37.9232 24.0359 37.8489 24.0637L37.8526 24.0619C37.6072 24.1177 33.6929 26.7044 26.1097 31.8223C25.2823 32.4749 24.2375 32.8876 23.0996 32.936H23.0884C21.4765 32.7408 20.0133 32.3819 18.6244 31.8707L18.762 31.9153C17.0181 31.3463 15.6329 31.047 15.7519 30.0839C15.8151 29.5832 16.5055 29.0707 17.8231 28.5463C25.9392 25.0101 31.3515 22.6792 34.0598 21.5538C37.0475 19.9679 40.5113 18.6627 44.1535 17.8167L44.4454 17.7591L44.4473 17.761ZM32.9349 1C17.4996 1.03718 5 13.5591 5 29C5 44.4632 17.5349 57 33 57C48.4651 57 61 44.4651 61 29C61 13.5591 48.5004 1.03718 33.0688 1H33.0651C33.0217 1 32.9783 1 32.9349 1Z" fill="white"/>
</g>
<defs>
<filter id="filter0_d_311_75" x="0" y="0" width="66" height="66" filterUnits="userSpaceOnUse" color-interpolation-filters="sRGB">
<feFlood flood-opacity="0" result="BackgroundImageFix"/>
<feColorMatrix in="SourceAlpha" type="matrix" values="0 0 0 0 0 0 0 0 0 0 0 0 0 0 0 0 0 0 127 0" result="hardAlpha"/>
<feOffset dy="4"/>
<feGaussianBlur stdDeviation="2.5"/>
<feComposite in2="hardAlpha" operator="out"/>
<feColorMatrix type="matrix" values="0 0 0 0 0 0 0 0 0 0 0 0 0 0 0 0 0 0 0.3 0"/>
<feBlend mode="normal" in2="BackgroundImageFix" result="effect1_dropShadow_311_75"/>
<feBlend mode="normal" in="SourceGraphic" in2="effect1_dropShadow_311_75" result="shape"/>
</filter>
</defs>
</svg>
